<svg width="129" height="37" viewBox="0 0 129 37" fill="none" xmlns="http://www.w3.org/2000/svg">
<path d="M67.9854 9.287C67.9854 10.619 66.8235 11.692 65.3813 11.692C63.9391 11.692 62.7773 10.619 62.7773 9.287C62.7773 7.955 63.899 6.882 65.3813 6.882C66.8636 6.919 67.9854 7.992 67.9854 9.287ZM57.2487 14.134C57.2487 14.356 57.2487 14.726 57.2487 14.726C57.2487 14.726 56.0068 13.246 53.3627 13.246C48.9959 13.246 45.5906 16.317 45.5906 20.572C45.5906 24.79 48.9558 27.898 53.3627 27.898C56.0468 27.898 57.2487 26.381 57.2487 26.381V27.01C57.2487 27.306 57.4891 27.528 57.8096 27.528H61.0546V13.616C61.0546 13.616 58.09 13.616 57.8096 13.616C57.4891 13.616 57.2487 13.875 57.2487 14.134ZM57.2487 23.051C56.6478 23.865 55.4459 24.568 54.0037 24.568C51.4397 24.568 49.4767 23.088 49.4767 20.572C49.4767 18.056 51.4397 16.576 54.0037 16.576C55.4058 16.576 56.6878 17.316 57.2487 18.093V23.051ZM63.4583 13.616H67.3043V27.528H63.4583V13.616ZM120.907 13.246C118.263 13.246 117.021 14.726 117.021 14.726V6.919H113.175V27.528C113.175 27.528 116.14 27.528 116.42 27.528C116.741 27.528 116.981 27.269 116.981 27.01V26.381C116.981 26.381 118.223 27.898 120.867 27.898C125.234 27.898 128.639 24.79 128.639 20.572C128.639 16.354 125.234 13.246 120.907 13.246ZM120.266 24.531C118.784 24.531 117.622 23.828 117.021 23.014V18.056C117.622 17.316 118.904 16.539 120.266 16.539C122.83 16.539 124.793 18.019 124.793 20.535C124.793 23.051 122.83 24.531 120.266 24.531ZM111.172 19.277V27.565H107.326V19.684C107.326 17.39 106.525 16.465 104.362 16.465C103.2 16.465 101.998 17.02 101.237 17.834V27.528H97.391V13.616H100.436C100.756 13.616 100.997 13.875 100.997 14.134V14.726C102.118 13.653 103.601 13.246 105.083 13.246C106.765 13.246 108.168 13.69 109.289 14.578C110.652 15.614 111.172 16.946 111.172 19.277ZM88.0565 13.246C85.4124 13.246 84.1704 14.726 84.1704 14.726V6.919H80.3245V27.528C80.3245 27.528 83.2891 27.528 83.5695 27.528C83.89 27.528 84.1304 27.269 84.1304 27.01V26.381C84.1304 26.381 85.3723 27.898 88.0164 27.898C92.3832 27.898 95.7885 24.79 95.7885 20.572C95.8285 16.354 92.4232 13.246 88.0565 13.246ZM87.4155 24.531C85.9332 24.531 84.7714 23.828 84.1704 23.014V18.056C84.7714 17.316 86.0534 16.539 87.4155 16.539C89.9795 16.539 91.9425 18.019 91.9425 20.535C91.9425 23.051 89.9795 24.531 87.4155 24.531ZM76.9993 13.246C78.1611 13.246 78.7621 13.431 78.7621 13.431V16.724C78.7621 16.724 75.5571 15.725 73.554 17.834V27.565H69.708V13.616C69.708 13.616 72.6726 13.616 72.9531 13.616C73.2736 13.616 73.5139 13.875 73.5139 14.134V14.726C74.235 13.949 75.7975 13.246 76.9993 13.246ZM37.0574 26.27C36.8571 25.826 36.6568 25.345 36.4565 24.938C36.136 24.272 35.8155 23.643 35.535 23.051L35.495 23.014C32.7307 17.464 29.7661 11.84 26.6412 6.29L26.5211 6.068C26.2006 5.513 25.8801 4.921 25.5596 4.329C25.1589 3.663 24.7583 2.96 24.1173 2.294C22.8353 0.814 20.9925 0 19.0294 0C17.0263 0 15.2235 0.814 13.9015 2.22C13.3006 2.886 12.8599 3.589 12.4593 4.255C12.1388 4.847 11.8183 5.439 11.4978 5.994L11.3776 6.216C8.29279 11.766 5.28813 17.39 2.52385 22.94L2.48379 23.014C2.20335 23.606 1.88285 24.235 1.56236 24.901C1.36205 25.308 1.16174 25.752 0.961425 26.233C0.440617 27.602 0.280369 28.897 0.48068 30.229C0.921363 33.004 2.92447 35.335 5.68876 36.371C6.73037 36.778 7.81205 36.963 8.93379 36.963C9.25428 36.963 9.65491 36.926 9.9754 36.889C11.2975 36.741 12.6596 36.334 13.9816 35.631C15.6242 34.78 17.1866 33.559 18.9493 31.783C20.7121 33.559 22.3145 34.78 23.917 35.631C25.2391 36.334 26.6012 36.741 27.9232 36.889C28.2437 36.926 28.6444 36.963 28.9648 36.963C30.0866 36.963 31.2083 36.778 32.2099 36.371C35.0142 35.335 36.9773 32.967 37.418 30.229C37.7385 28.934 37.5782 27.639 37.0574 26.27ZM18.9894 28.194C16.826 25.678 15.4239 23.31 14.9431 21.312C14.7428 20.461 14.7027 19.721 14.8229 19.055C14.903 18.463 15.1434 17.945 15.4639 17.501C16.2251 16.502 17.5071 15.873 18.9894 15.873C20.4717 15.873 21.7937 16.465 22.5148 17.501C22.8353 17.945 23.0757 18.463 23.1558 19.055C23.276 19.721 23.236 20.498 23.0357 21.312C22.5549 23.273 21.1527 25.641 18.9894 28.194ZM34.9742 29.933C34.6937 31.857 33.2916 33.522 31.3285 34.262C30.367 34.632 29.3254 34.743 28.2838 34.632C27.2822 34.521 26.2807 34.225 25.2391 33.67C23.7968 32.93 22.3546 31.783 20.672 30.081C23.3161 27.084 24.9186 24.346 25.5195 21.904C25.7999 20.757 25.84 19.721 25.7198 18.759C25.5596 17.834 25.199 16.983 24.6381 16.243C23.3962 14.578 21.313 13.616 18.9894 13.616C16.6658 13.616 14.5825 14.615 13.3406 16.243C12.7798 16.983 12.4192 17.834 12.2589 18.759C12.0987 19.721 12.1388 20.794 12.4593 21.904C13.0602 24.346 14.7027 27.121 17.3068 30.118C15.6642 31.82 14.1819 32.967 12.7397 33.707C11.6981 34.262 10.6965 34.558 9.69497 34.669C8.61329 34.78 7.57167 34.632 6.65025 34.299C4.6872 33.559 3.28503 31.894 3.00459 29.97C2.88441 29.045 2.96453 28.12 3.36515 27.084C3.48534 26.714 3.68565 26.344 3.88596 25.9C4.16639 25.308 4.48689 24.679 4.80739 24.05L4.84745 23.976C7.61174 18.463 10.5763 12.839 13.6611 7.363L13.7813 7.141C14.1018 6.586 14.4223 5.994 14.7428 5.439C15.0633 4.847 15.4239 4.292 15.8645 3.811C16.7058 2.923 17.8276 2.442 19.0695 2.442C20.3114 2.442 21.4332 2.923 22.2745 3.811C22.7152 4.292 23.0757 4.847 23.3962 5.439C23.7167 5.994 24.0372 6.586 24.3577 7.141L24.4779 7.363C27.5226 12.876 30.4872 18.5 33.2515 24.013V24.05C33.572 24.642 33.8524 25.308 34.1729 25.9C34.3732 26.344 34.5735 26.714 34.6937 27.084C35.0142 28.046 35.1344 28.971 34.9742 29.933Z" fill="#ADAFBF"/>
</svg>
