<svg width="36" height="36" viewBox="0 0 36 36" fill="none" xmlns="http://www.w3.org/2000/svg">
<g clip-path="url(#clip0)">
<path d="M18 4.06332e-07C12.315 4.06332e-07 7.24652 2.6355 3.94802 6.7515L9.87752 17.0235C10.116 15.0369 11.0742 13.2066 12.5709 11.8787C14.0677 10.5509 15.9992 9.81755 18 9.8175H34.0365C32.5281 6.86195 30.2321 4.38087 27.4021 2.64835C24.5721 0.915828 21.3182 -0.000704527 18 4.06332e-07ZM2.89652 8.205C1.00096 11.1197 -0.00545811 14.5231 2.22635e-05 18C2.22635e-05 27.018 6.63002 34.4865 15.2835 35.796L21.213 25.5255C19.3736 26.3121 17.3096 26.3969 15.4118 25.7639C13.5141 25.1308 11.9143 23.8239 10.9155 22.0905L2.89652 8.205ZM22.9095 11.454C24.5116 12.6527 25.618 14.3977 26.0189 16.358C26.4198 18.3183 26.0873 20.3576 25.0845 22.089L25.0875 22.0905H25.0845L17.0685 35.976C17.3775 35.991 17.688 36 18 36C27.9405 36 36 27.9405 36 18C36 15.69 35.565 13.4835 34.773 11.454H22.9095ZM18 24.546C16.2639 24.546 14.5989 23.8563 13.3713 22.6287C12.1437 21.4011 11.454 19.7361 11.454 18C11.454 16.2639 12.1437 14.5989 13.3713 13.3713C14.5989 12.1437 16.2639 11.454 18 11.454C19.7361 11.454 21.4011 12.1437 22.6287 13.3713C23.8564 14.5989 24.546 16.2639 24.546 18C24.546 19.7361 23.8564 21.4011 22.6287 22.6287C21.4011 23.8563 19.7361 24.546 18 24.546Z" fill="#ADAFBF"/>
</g>
<defs>
<clipPath id="clip0">
<rect width="36" height="36" fill="white"/>
</clipPath>
</defs>
</svg>
