<svg width="85" height="30" viewBox="0 0 85 30" fill="none" xmlns="http://www.w3.org/2000/svg">
<path d="M36.3811 15.7872C36.3811 20.1013 33.2351 23.2803 29.3742 23.2803C25.5132 23.2803 22.3672 20.1013 22.3672 15.7872C22.3672 11.4426 25.5132 8.29404 29.3742 8.29404C33.2351 8.29404 36.3811 11.4426 36.3811 15.7872ZM33.3138 15.7872C33.3138 13.0913 31.4904 11.2467 29.3742 11.2467C27.2579 11.2467 25.4345 13.0913 25.4345 15.7872C25.4345 18.456 27.2579 20.3276 29.3742 20.3276C31.4904 20.3276 33.3138 18.4527 33.3138 15.7872Z" fill="#ADAFBF"/>
<path d="M51.4973 15.7872C51.4973 20.1013 48.3513 23.2803 44.4904 23.2803C40.6294 23.2803 37.4834 20.1013 37.4834 15.7872C37.4834 11.446 40.6294 8.29404 44.4904 8.29404C48.3513 8.29404 51.4973 11.4426 51.4973 15.7872ZM48.43 15.7872C48.43 13.0913 46.6066 11.2467 44.4904 11.2467C42.3741 11.2467 40.5507 13.0913 40.5507 15.7872C40.5507 18.456 42.3741 20.3276 44.4904 20.3276C46.6066 20.3276 48.43 18.4527 48.43 15.7872Z" fill="#ADAFBF"/>
<path d="M65.9837 8.74673V22.1992C65.9837 27.7329 62.9415 29.993 59.3451 29.993C55.9598 29.993 53.9222 27.564 53.1538 25.5775L55.8243 24.385C56.2999 25.6046 57.4651 27.0437 59.342 27.0437C61.6441 27.0437 63.0707 25.5201 63.0707 22.6519V21.5742H62.9636C62.2771 22.483 60.9544 23.2769 59.2853 23.2769C55.7928 23.2769 52.5933 20.0134 52.5933 15.8142C52.5933 11.5845 55.7928 8.29404 59.2853 8.29404C60.9512 8.29404 62.2739 9.08794 62.9636 9.96969H63.0707V8.75011H65.9837V8.74673ZM63.288 15.8142C63.288 13.1757 61.6472 11.2467 59.5593 11.2467C57.443 11.2467 55.67 13.1757 55.67 15.8142C55.67 18.4256 57.443 20.3276 59.5593 20.3276C61.6472 20.3276 63.288 18.4256 63.288 15.8142Z" fill="#ADAFBF"/>
<path d="M70.7862 0.861725V22.8208H67.7944V0.861725H70.7862Z" fill="#ADAFBF"/>
<path d="M82.4446 18.2533L84.8254 19.956C84.0569 21.1756 82.2052 23.2769 79.0056 23.2769C75.0376 23.2769 72.0742 19.9864 72.0742 15.7838C72.0742 11.3278 75.0628 8.29065 78.6624 8.29065C82.2871 8.29065 84.0601 11.3852 84.6396 13.0575L84.9576 13.9088L75.6202 18.0574C76.3351 19.5607 77.4468 20.3276 79.0056 20.3276C80.5676 20.3276 81.651 19.5033 82.4446 18.2533ZM75.1164 15.5574L81.3581 12.7771C81.0148 11.8413 79.9819 11.1893 78.7663 11.1893C77.2074 11.1893 75.0376 12.6656 75.1164 15.5574Z" fill="#ADAFBF"/>
<path d="M11.0422 13.8384V10.6594H21.0283C21.1259 11.2134 21.1763 11.8688 21.1763 12.5782C21.1763 14.9633 20.5685 17.9126 18.6097 20.0139C16.7044 22.1423 14.2701 23.2774 11.0453 23.2774C5.06812 23.2774 0.0419922 18.0545 0.0419922 11.6425C0.0419922 5.2304 5.06812 0.00750732 11.0453 0.00750732C14.352 0.00750732 16.7076 1.39938 18.4774 3.21354L16.3863 5.45674C15.1172 4.17974 13.3978 3.18651 11.0422 3.18651C6.67736 3.18651 3.26363 6.9601 3.26363 11.6425C3.26363 16.3248 6.67736 20.0984 11.0422 20.0984C13.8733 20.0984 15.4857 18.8788 16.5186 17.7707C17.3563 16.8721 17.9074 15.5883 18.1247 13.835L11.0422 13.8384Z" fill="#ADAFBF"/>
</svg>
