<svg width="40" height="40" viewBox="0 0 40 40" fill="none" xmlns="http://www.w3.org/2000/svg">
<path d="M20 3.33331C15.405 3.33331 11.6666 7.07165 11.6666 11.6666V16.6666H9.99996C9.1159 16.6666 8.26806 17.0178 7.64294 17.643C7.01782 18.2681 6.66663 19.1159 6.66663 20V33.3333C6.66663 34.2174 7.01782 35.0652 7.64294 35.6903C8.26806 36.3155 9.1159 36.6666 9.99996 36.6666H30C30.884 36.6666 31.7319 36.3155 32.357 35.6903C32.9821 35.0652 33.3333 34.2174 33.3333 33.3333V20C33.3333 19.1159 32.9821 18.2681 32.357 17.643C31.7319 17.0178 30.884 16.6666 30 16.6666H28.3333V11.6666C28.3333 7.07165 24.595 3.33331 20 3.33331ZM15 11.6666C15 8.90998 17.2433 6.66665 20 6.66665C22.7566 6.66665 25 8.90998 25 11.6666V16.6666H15V11.6666ZM21.6666 29.5383V33.3333H18.3333V29.5383C17.7506 29.2046 17.2827 28.7022 16.9913 28.0972C16.7 27.4923 16.5988 26.8132 16.7011 26.1496C16.8034 25.486 17.1045 24.8689 17.5646 24.3799C18.0246 23.8908 18.6222 23.5526 19.2783 23.41C19.7657 23.3022 20.271 23.3052 20.757 23.4188C21.2431 23.5323 21.6974 23.7536 22.0866 24.0661C22.4758 24.3786 22.7898 24.7746 23.0056 25.2246C23.2213 25.6747 23.3333 26.1675 23.3333 26.6666C23.3323 27.2495 23.1778 27.8219 22.8852 28.3261C22.5926 28.8302 22.1723 29.2483 21.6666 29.5383Z" fill="#905FFF"/>
</svg>
