<svg width="74" height="27" viewBox="0 0 74 27" fill="none" xmlns="http://www.w3.org/2000/svg">
<path d="M73.5358 0.693665L20.6229 23.4889C16.2346 25.3672 12.5496 26.3063 9.56778 26.3063C6.19216 26.3063 3.74483 25.1111 2.2258 22.7205C1.26937 21.1838 0.988069 19.2344 1.38189 16.8723C1.77571 14.5103 2.81653 11.9917 4.50434 9.31659C5.91085 7.15374 8.21753 4.30789 11.4244 0.77904C10.2992 2.60038 9.51152 4.47864 9.06144 6.41382C8.21753 10.0565 8.97704 12.7316 11.34 14.4391C12.4652 15.236 14.0123 15.6344 15.9815 15.6344C17.5568 15.6344 19.329 15.3782 21.2981 14.866L73.5358 0.693665Z" fill="#ADAFBF"/>
</svg>
