<svg width="40" height="40" viewBox="0 0 40 40" fill="none" xmlns="http://www.w3.org/2000/svg">
<path d="M5.83337 23.3333L22.5 23.335C23.1215 23.335 23.7207 23.5665 24.1807 23.9844C24.6408 24.4022 24.9287 24.9764 24.9884 25.595L25 25.8333V29.1667C24.9984 35 18.8067 36.6667 14.1667 36.6667C9.63004 36.6667 3.60837 35.0733 3.34171 29.55L3.33337 29.1667V25.8333C3.3334 25.2119 3.56491 24.6127 3.98274 24.1526C4.40057 23.6926 4.97477 23.4047 5.59337 23.345L5.83337 23.3333ZM25.8134 23.3333H34.1667C34.7879 23.3333 35.3869 23.5646 35.8469 23.9821C36.3069 24.3996 36.595 24.9734 36.655 25.5917L36.6667 25.8333V28.3333C36.665 33.4367 31.9034 35 28.3334 35C27.1242 35.0029 25.9215 34.8219 24.7667 34.4633C25.855 33.2133 26.56 31.625 26.655 29.6333L26.6667 29.1667V25.8333C26.6667 25.01 26.4167 24.2483 26.0017 23.6033L25.8134 23.3333H34.1667H25.8134ZM14.1667 5C16.1558 5 18.0635 5.79018 19.47 7.1967C20.8765 8.60322 21.6667 10.5109 21.6667 12.5C21.6667 14.4891 20.8765 16.3968 19.47 17.8033C18.0635 19.2098 16.1558 20 14.1667 20C12.1776 20 10.2699 19.2098 8.86341 17.8033C7.45688 16.3968 6.66671 14.4891 6.66671 12.5C6.66671 10.5109 7.45688 8.60322 8.86341 7.1967C10.2699 5.79018 12.1776 5 14.1667 5ZM29.1667 8.33333C30.7138 8.33333 32.1975 8.94792 33.2915 10.0419C34.3855 11.1358 35 12.6196 35 14.1667C35 15.7138 34.3855 17.1975 33.2915 18.2915C32.1975 19.3854 30.7138 20 29.1667 20C27.6196 20 26.1359 19.3854 25.0419 18.2915C23.948 17.1975 23.3334 15.7138 23.3334 14.1667C23.3334 12.6196 23.948 11.1358 25.0419 10.0419C26.1359 8.94792 27.6196 8.33333 29.1667 8.33333Z" fill="#465EFF"/>
</svg>
