<svg width="24" height="23" viewBox="0 0 24 23" fill="none" xmlns="http://www.w3.org/2000/svg">
<path d="M21 17.25C20.4531 17.25 19.9531 17.119 19.5 16.8569C19.0469 16.5949 18.6875 16.2467 18.4219 15.8125H18V21.5625C18 21.9668 17.8516 22.3075 17.5547 22.5845C17.2578 22.8615 16.9062 23 16.5 23H10.5V22.5957C10.9531 22.3411 11.3164 21.9967 11.5898 21.5625C11.8633 21.1283 12 20.6491 12 20.125C12 19.3314 11.707 18.6538 11.1211 18.0923C10.5352 17.5308 9.82812 17.25 9 17.25C8.17188 17.25 7.46484 17.5308 6.87891 18.0923C6.29297 18.6538 6 19.3314 6 20.125C6 20.6491 6.13672 21.1283 6.41016 21.5625C6.68359 21.9967 7.04688 22.3411 7.5 22.5957V23H1.5C1.09375 23 0.742188 22.8615 0.445312 22.5845C0.148438 22.3075 0 21.9668 0 21.5625V15.8125H0.421875C0.6875 16.2467 1.04688 16.5949 1.5 16.8569C1.95312 17.119 2.45312 17.25 3 17.25C3.82812 17.25 4.53516 16.9692 5.12109 16.4077C5.70703 15.8462 6 15.1686 6 14.375C6 13.5814 5.70703 12.9038 5.12109 12.3423C4.53516 11.7808 3.82812 11.5 3 11.5C2.45312 11.5 1.95312 11.631 1.5 11.8931C1.04688 12.1551 0.6875 12.5033 0.421875 12.9375H0V7.1875C0 6.79818 0.148438 6.46126 0.445312 6.17676C0.742188 5.89225 1.09375 5.75 1.5 5.75H7.5V5.3457C7.04688 5.09115 6.68359 4.74674 6.41016 4.3125C6.13672 3.87826 6 3.39909 6 2.875C6 2.08138 6.29297 1.40381 6.87891 0.842285C7.46484 0.280762 8.17188 0 9 0C9.82812 0 10.5352 0.280762 11.1211 0.842285C11.707 1.40381 12 2.08138 12 2.875C12 3.39909 11.8633 3.87826 11.5898 4.3125C11.3164 4.74674 10.9531 5.09115 10.5 5.3457V5.75H16.5C16.9062 5.75 17.2578 5.89225 17.5547 6.17676C17.8516 6.46126 18 6.79818 18 7.1875V12.9375H18.4219C18.6875 12.5033 19.0469 12.1551 19.5 11.8931C19.9531 11.631 20.4531 11.5 21 11.5C21.8281 11.5 22.5352 11.7808 23.1211 12.3423C23.707 12.9038 24 13.5814 24 14.375C24 15.1686 23.707 15.8462 23.1211 16.4077C22.5352 16.9692 21.8281 17.25 21 17.25Z" fill="#FF6D42"/>
</svg>
