<svg width="40" height="40" viewBox="0 0 40 40" fill="none" xmlns="http://www.w3.org/2000/svg">
<path d="M34.1667 18.3334H31.6667V11.6667C31.6667 10.7826 31.3155 9.93478 30.6904 9.30966C30.0653 8.68454 29.2174 8.33335 28.3334 8.33335H21.6667V5.83335C21.6667 4.72828 21.2277 3.66848 20.4463 2.88708C19.6649 2.10567 18.6051 1.66669 17.5 1.66669C16.395 1.66669 15.3352 2.10567 14.5538 2.88708C13.7724 3.66848 13.3334 4.72828 13.3334 5.83335V8.33335H6.66671C5.78265 8.33335 4.93481 8.68454 4.30968 9.30966C3.68456 9.93478 3.33337 10.7826 3.33337 11.6667V18H5.83337C8.33337 18 10.3334 20 10.3334 22.5C10.3334 25 8.33337 27 5.83337 27H3.33337V33.3334C3.33337 34.2174 3.68456 35.0653 4.30968 35.6904C4.93481 36.3155 5.78265 36.6667 6.66671 36.6667H13V34.1667C13 31.6667 15 29.6667 17.5 29.6667C20 29.6667 22 31.6667 22 34.1667V36.6667H28.3334C29.2174 36.6667 30.0653 36.3155 30.6904 35.6904C31.3155 35.0653 31.6667 34.2174 31.6667 33.3334V26.6667H34.1667C35.2718 26.6667 36.3316 26.2277 37.113 25.4463C37.8944 24.6649 38.3334 23.6051 38.3334 22.5C38.3334 21.395 37.8944 20.3351 37.113 19.5537C36.3316 18.7723 35.2718 18.3334 34.1667 18.3334Z" fill="#6AC75A"/>
</svg>
