<svg width="98" height="20" viewBox="0 0 98 20" fill="none" xmlns="http://www.w3.org/2000/svg">
<path fill-rule="evenodd" clip-rule="evenodd" d="M15.4048 0.482295V11.4928C15.4048 15.1695 13.7388 16.6964 9.83121 16.6964C5.9233 16.6964 4.2573 15.1695 4.2573 11.4928V0H0.493692C0.164788 0 0 0.160984 0 0.482295V11.6734C0 17.822 4.01062 19.9718 9.83121 19.9718C15.6515 19.9718 19.6621 17.822 19.6621 11.6734V0H15.8982C15.5692 0 15.4048 0.160984 15.4048 0.482295Z" fill="#ADAFBF"/>
<path fill-rule="evenodd" clip-rule="evenodd" d="M69.9656 3.19475C70.2741 3.19475 70.418 3.09443 70.5207 2.87311L71.6112 0.240984C71.6729 0.0806557 71.6112 0 71.4464 0H56.2886C54.8693 0 54.335 0.421967 54.335 1.36623V18.4646C54.335 19.2685 54.7458 19.6302 55.8362 19.6302H69.9656C70.2741 19.6302 70.418 19.5295 70.5207 19.3088L71.6112 16.6764C71.6729 16.5157 71.6112 16.4354 71.4464 16.4354H58.51V12.9593C58.51 11.7538 59.1886 11.2111 61.0188 11.2111H66.634C66.9424 11.2111 67.086 11.1111 67.1891 10.8902L68.2382 8.35836C68.2996 8.19738 68.2382 8.11738 68.0734 8.11738H58.51V3.19475H69.9656Z" fill="#ADAFBF"/>
<path fill-rule="evenodd" clip-rule="evenodd" d="M39.3329 16.4757H31.906V12.879C31.906 11.6734 32.5846 11.1311 34.4154 11.1311H39.3329C41.6979 11.1311 42.3561 12.0151 42.3561 13.8236C42.3561 15.6318 41.6979 16.4757 39.3329 16.4757ZM31.906 3.15443H38.5512C40.7723 3.15443 41.3895 3.9718 41.3895 5.6659C41.3895 7.36033 40.7723 8.1777 38.5512 8.1777H31.906V3.15443ZM43.2817 9.28262C44.9269 8.43869 45.6055 6.85147 45.6055 4.98295C45.6055 0.642951 41.9859 0 38.2428 0H29.6869C28.2676 0 27.7333 0.421967 27.7333 1.36623V18.4646C27.7333 19.2685 28.1444 19.6302 29.2345 19.6302H39.7648C43.7341 19.6302 46.5721 18.1233 46.5721 14.2052C46.5721 11.8544 45.5438 9.86524 43.2817 9.28262Z" fill="#ADAFBF"/>
<path fill-rule="evenodd" clip-rule="evenodd" d="M90.0278 9.10164H83.0349V3.15475H90.0278C92.6396 3.15475 93.2155 4.13902 93.2155 6.1282C93.2155 8.13738 92.6396 9.10164 90.0278 9.10164ZM97.8843 19.2885L93.3803 11.7338C95.6219 11.1715 97.4319 9.72492 97.4319 6.04787C97.4319 1.28623 94.4083 0 89.4106 0H80.8138C79.3948 0 78.8599 0.421967 78.8599 1.36623V19.1479C78.8599 19.4692 79.0246 19.6302 79.3536 19.6302H83.0349V13.9039C83.0349 12.6984 83.7135 12.1557 85.5443 12.1557H89.2462L93.3182 19.3088C93.4417 19.5095 93.5652 19.6302 93.8737 19.6302H97.6994C97.9668 19.6302 97.9668 19.4089 97.8843 19.2885Z" fill="#ADAFBF"/>
</svg>
