<svg width="181" height="24" viewBox="0 0 181 24" fill="none" xmlns="http://www.w3.org/2000/svg">
<path d="M26.3487 23.2379V13.0894C26.3487 9.19832 23.9546 6.66177 19.8509 6.66177C17.7994 6.66177 15.5766 7.33828 14.0376 9.53734C12.8413 7.67654 11.1318 6.66177 8.56706 6.66177C6.85673 6.66177 5.14796 7.16877 3.77954 9.02957V7.00002H0.189087V23.2379H3.77954V14.273C3.77954 11.3982 5.31852 10.0443 7.71267 10.0443C10.1053 10.0443 11.3031 11.5669 11.3031 14.273V23.2379H14.8936V14.273C14.8936 11.3982 16.6023 10.0443 18.8251 10.0443C21.2193 10.0443 22.4156 11.5669 22.4156 14.273V23.2379H26.3487ZM79.5209 7.00002H73.7084V2.0949H70.1179V7.00002H66.8694V10.2131H70.1172V17.6563C70.1172 21.3779 71.6561 23.5762 75.7598 23.5762C77.2988 23.5762 79.0076 23.0692 80.2055 22.3927L79.1789 19.3476C78.1532 20.0241 76.9569 20.1936 76.1018 20.1936C74.3922 20.1936 73.7084 19.1789 73.7084 17.4868V10.2131H79.5209V7.00002ZM109.955 6.66099C107.903 6.66099 106.536 7.67654 105.681 9.02957V7.00002H102.09V23.2379H105.681V14.1042C105.681 11.3981 106.877 9.87561 109.1 9.87561C109.783 9.87561 110.639 10.0451 111.322 10.2139L112.348 6.83129C111.664 6.66177 110.639 6.66177 109.955 6.66177V6.66099ZM63.9628 8.35305C62.2524 7.16877 59.8591 6.66177 57.2943 6.66177C53.1914 6.66177 50.4561 8.69131 50.4561 11.9051C50.4561 14.612 52.5076 16.1338 56.0981 16.6415L57.8076 16.811C59.6885 17.1485 60.7142 17.6563 60.7142 18.5023C60.7142 19.6859 59.3466 20.5319 56.9524 20.5319C54.5591 20.5319 52.6782 19.6859 51.4811 18.8406L49.7715 21.5467C51.6524 22.8997 54.2172 23.5762 56.7811 23.5762C61.5686 23.5762 64.3047 21.3779 64.3047 18.3328C64.3047 15.4572 62.0819 13.9347 58.662 13.4277L56.9524 13.2582C55.4135 13.0887 54.2172 12.7512 54.2172 11.7364C54.2172 10.5521 55.4135 9.87561 57.2943 9.87561C59.3466 9.87561 61.3981 10.7209 62.4238 11.2286L63.9628 8.35305ZM159.367 6.66177C157.314 6.66177 155.947 7.67654 155.092 9.02957V7.00002H151.501V23.2379H155.092V14.1042C155.092 11.3981 156.289 9.87561 158.511 9.87561C159.195 9.87561 160.05 10.0451 160.734 10.2139L161.76 6.83129C161.076 6.66177 160.05 6.66177 159.367 6.66177ZM113.545 15.119C113.545 20.0241 116.964 23.5762 122.265 23.5762C124.658 23.5762 126.368 23.0692 128.078 21.7162L126.368 18.8406C125 19.8554 123.633 20.3624 122.094 20.3624C119.187 20.3624 117.136 18.3328 117.136 15.119C117.136 12.0747 119.187 10.0444 122.094 9.87561C123.633 9.87561 125 10.3826 126.368 11.3982L128.078 8.52257C126.368 7.16877 124.658 6.66177 122.265 6.66177C116.964 6.66177 113.545 10.2139 113.545 15.119ZM146.714 15.119V7.00002H143.124V9.02957C141.927 7.5078 140.217 6.66177 137.995 6.66177C133.378 6.66177 129.788 10.2139 129.788 15.119C129.788 20.0241 133.378 23.5762 137.995 23.5762C140.388 23.5762 142.098 22.7309 143.124 21.2084V23.2379H146.714V15.119ZM133.549 15.119C133.549 12.2434 135.43 9.87561 138.507 9.87561C141.414 9.87561 143.466 12.0747 143.466 15.119C143.466 17.9946 141.414 20.3624 138.507 20.3624C135.43 20.1929 133.549 17.9946 133.549 15.119ZM90.6349 6.66177C85.8474 6.66177 82.4275 10.0443 82.4275 15.119C82.4275 20.1936 85.8466 23.5762 90.8055 23.5762C93.1988 23.5762 95.593 22.8997 97.4739 21.3779L95.7635 18.8406C94.3959 19.8554 92.6864 20.5319 90.9768 20.5319C88.754 20.5319 86.5312 19.5171 86.0179 16.6408H98.1577V15.2885C98.3291 10.0443 95.2511 6.66177 90.6341 6.66177H90.6349ZM90.6349 9.70609C92.8569 9.70609 94.3967 11.0599 94.7378 13.5972H86.1893C86.5312 11.3981 88.0702 9.70609 90.6349 9.70609ZM179.712 15.119V0.572357H176.122V9.02957C174.925 7.5078 173.215 6.66177 170.992 6.66177C166.376 6.66177 162.786 10.2139 162.786 15.119C162.786 20.0241 166.376 23.5762 170.992 23.5762C173.387 23.5762 175.096 22.7309 176.122 21.2084V23.2379H179.712V15.119ZM166.548 15.119C166.548 12.2434 168.428 9.87561 171.506 9.87561C174.412 9.87561 176.464 12.0747 176.464 15.119C176.464 17.9946 174.412 20.3624 171.506 20.3624C168.428 20.1929 166.548 17.9946 166.548 15.119ZM46.523 15.119V7.00002H42.9326V9.02957C41.7355 7.5078 40.0259 6.66177 37.8031 6.66177C33.1869 6.66177 29.5965 10.2139 29.5965 15.119C29.5965 20.0241 33.1869 23.5762 37.8031 23.5762C40.1973 23.5762 41.9068 22.7309 42.9326 21.2084V23.2379H46.523V15.119ZM33.1869 15.119C33.1869 12.2434 35.0678 9.87561 38.145 9.87561C41.0517 9.87561 43.1039 12.0747 43.1039 15.119C43.1039 17.9946 41.0517 20.3624 38.145 20.3624C35.0678 20.1929 33.1869 17.9946 33.1869 15.119Z" fill="#ADAFBF"/>
</svg>
