<svg width="72" height="31" viewBox="0 0 72 31" fill="none" xmlns="http://www.w3.org/2000/svg">
<path d="M18.5622 3.1775L13.691 4.19607L13.6685 19.9618C13.6685 22.8736 15.896 24.7557 18.8547 24.7557C20.4972 24.7557 21.701 24.4568 22.3647 24.1025V20.3604C21.7235 20.615 18.5735 21.5229 18.5735 18.6221V11.625H22.3647V7.44H18.5735L18.5622 3.1775ZM28.586 8.89036L28.2822 7.44H23.9622V24.4014H28.946V12.9868C30.1272 11.4589 32.1185 11.7579 32.7597 11.9571V7.44C32.0847 7.2075 29.756 6.77571 28.586 8.89036ZM38.9697 0.885712L33.9522 1.9375V5.94536L38.9697 4.89357V0.885712ZM5.05099 12.4332C5.05099 11.6693 5.70349 11.3704 6.74974 11.3593C8.26849 11.3593 10.2035 11.8132 11.7222 12.6214V7.99357C10.1415 7.38665 8.45766 7.08228 6.76099 7.09678C2.71099 7.09678 0.0109863 9.17821 0.0109863 12.6546C0.0109863 18.1018 7.60474 17.2161 7.60474 19.5632C7.60474 20.4711 6.80599 20.77 5.69224 20.77C4.03849 20.77 1.90099 20.0946 0.224736 19.1979V23.6264C2.08099 24.4125 3.95974 24.7446 5.68099 24.7446C9.83224 24.7446 12.6897 22.9954 12.6897 19.4525C12.6897 13.5957 5.05099 14.6475 5.05099 12.4332ZM71.9997 16.12C71.9997 11.0825 69.5247 7.10786 64.7772 7.10786C60.0297 7.10786 57.1385 11.0825 57.1385 16.0868C57.1385 22.01 60.5472 24.7446 65.4072 24.7446C67.7922 24.7446 69.581 24.2132 70.9422 23.4714V19.7736C69.581 20.4489 68.0172 20.8586 66.0372 20.8586C64.091 20.8586 62.381 20.1832 62.156 17.8804H71.9322C71.9547 17.6257 71.9997 16.5961 71.9997 16.12ZM62.111 14.26C62.111 12.0457 63.4947 11.1157 64.7435 11.1157C65.9697 11.1157 67.2747 12.0457 67.2747 14.26H62.111ZM49.4097 7.10786C47.4522 7.10786 46.1922 8.01571 45.4947 8.64678L45.236 7.42893H40.8372V30.1032L45.8322 29.0625L45.8435 23.5046C46.5635 24.025 47.6322 24.7446 49.376 24.7446C52.9535 24.7446 56.216 22.1761 56.216 15.9318C56.2272 10.2189 52.9197 7.10786 49.4097 7.10786ZM48.2172 20.6704C47.0472 20.6704 46.3497 20.2496 45.866 19.7404L45.8322 12.4332C46.3497 11.8686 47.0697 11.4589 48.2172 11.4589C50.0397 11.4589 51.2997 13.4739 51.2997 16.0425C51.311 18.6886 50.0735 20.6704 48.2172 20.6704ZM33.9635 24.4014H38.981V7.44H33.9635V24.4014Z" fill="#ADAFBF"/>
</svg>
